<svg xmlns="http://www.w3.org/2000/svg" version="1.1" style="display: block;" viewBox="0 0 2048 2048" width="1080" height="1080" preserveAspectRatio="none">
<path transform="translate(0,0)" fill="rgb(2,49,85)" d="M 1092.79 967.124 C 1141.8 923.803 1191.78 883.679 1251.93 856.93 C 1319.25 826.993 1331.08 883.043 1337.54 932.854 C 1348.33 1016.16 1333.27 1077.15 1302.81 1153.07 C 1320.65 1198.22 1332.34 1239.02 1332.61 1288.13 C 1332.65 1296.44 1332.75 1309.29 1331.25 1317.1 C 1347.18 1321.16 1377.75 1328.51 1389.17 1338.25 C 1400.31 1347.75 1386.61 1360.38 1370.09 1349.55 C 1363.04 1344.93 1337.45 1338.63 1328.51 1336.59 C 1321.37 1365.8 1314 1382.94 1296.07 1406.96 C 1304.79 1410.18 1352.51 1435.02 1331.04 1445.74 C 1323.86 1449.32 1296.06 1426.33 1283.05 1422.3 C 1261.44 1444.48 1246.98 1453.71 1221.12 1469.02 C 1235.38 1482.13 1249.22 1495.68 1262.63 1509.67 C 1310.26 1559.87 1357.07 1635.25 1368.14 1704.19 C 1371.64 1725.95 1371.34 1741.85 1370.83 1763.43 C 1380.87 1757.7 1389.12 1752.14 1396.1 1742.49 C 1434.39 1689.94 1405.4 1634.37 1395.38 1574.72 C 1381.48 1492.03 1422.86 1403.53 1511.65 1388.46 C 1546.21 1382.6 1584.56 1400.75 1588.07 1440.23 C 1591.81 1482.36 1564.75 1491.04 1539.59 1516.9 C 1508.88 1552.39 1528.6 1599.38 1531.52 1640.15 C 1536.2 1705.38 1522.23 1770.38 1478.51 1820.7 C 1437.94 1867.41 1387.49 1870.83 1330.55 1874.98 C 1327.57 1878.43 1324.52 1881.57 1320.88 1884.35 C 1285.01 1911.83 1177.38 1917.3 1131.83 1910.77 C 1113.22 1908.1 1102.08 1902.21 1090.67 1886.92 C 1087.75 1887.49 1084.24 1887.66 1081.21 1887.9 C 1045.07 1917.57 998.669 1913.87 954.407 1907.13 C 941.928 1905.23 937.776 1895.23 932.137 1886.72 C 916.636 1885.66 910.819 1901.05 897.314 1904.58 C 869.6 1911.83 839.892 1911.77 811.492 1910.08 C 779.506 1908.18 765.71 1890.97 769.899 1859.3 C 773.257 1833.9 784.996 1824.82 803.799 1810.22 C 802.218 1790.11 792.644 1757.36 789.296 1733.01 C 778.485 1653.11 780.179 1572 794.317 1492.62 C 757.488 1486.36 705.868 1453.31 677.971 1428.54 C 673.896 1424.93 657.64 1404.52 654.945 1404.03 C 641.563 1401.63 599.017 1440.73 591.103 1435.34 C 566.383 1418.49 635.361 1390.56 645.738 1385.83 C 633.991 1370.3 628.97 1346.4 625.591 1327.56 C 618.051 1328.19 610.57 1329.39 603.213 1331.15 C 592.866 1333.57 563.934 1343.45 555.591 1340.63 C 553.486 1338.77 552.791 1337.08 552.437 1334.33 C 550.85 1322.01 575.673 1318.21 583.849 1316.18 C 597.328 1312.85 611.311 1310.82 624.978 1309.42 C 622.752 1256.02 636.764 1207.73 653.887 1158.24 C 649.039 1143.96 642.398 1130.12 638.086 1115.6 C 618.596 1049.73 612.614 981.424 625.376 913.84 C 637.305 850.67 664.874 846.901 715.982 873.671 C 769.05 901.468 810.179 932.84 854.239 972.575 C 880.544 962.629 929.597 953.606 957.676 954.112 C 966.392 952.51 990.377 951.759 999.192 953.773 C 1027.89 954.25 1064.9 959.53 1092.79 967.124 z"/>
<path transform="translate(0,0)" fill="#023155" d="M 957.676 954.112 C 966.392 952.51 990.377 951.759 999.192 953.773 C 991.01 956.008 966.461 955.718 957.676 954.112 z"/>
<path transform="translate(0,0)" fill="#023155" d="M 1113.07 977.253 C 1128.98 962.08 1143.06 951.514 1160.03 937.984 C 1196.41 908.97 1232.92 885.282 1277.05 869.563 C 1226.43 909.01 1188.51 961.328 1172.29 1024.3 C 1168.69 1038.25 1197 1045.79 1205.14 1053.78 C 1224.43 1069.17 1242.72 1087.11 1256.57 1107.9 C 1285.51 1155.42 1311.52 1225.24 1312.07 1281.2 C 1312.07 1292.15 1312.21 1303.46 1311.84 1314.37 C 1286.16 1309.12 1251.94 1310.07 1226.15 1313.59 C 1216.67 1315.54 1206.66 1317.78 1197.85 1319.94 C 1188.15 1322.33 1168.29 1331.73 1183.8 1341.11 C 1186.93 1343.01 1215.44 1332.52 1221.06 1332.43 C 1253.62 1326.64 1276.04 1327.86 1308.2 1331.5 C 1301.28 1359.59 1293.78 1374.09 1276.04 1397.09 C 1249.46 1384.42 1213.38 1369.77 1183.62 1374.69 C 1176.21 1375.92 1175.09 1389.76 1188.69 1390.2 C 1214.25 1391.04 1241.22 1399.59 1263.89 1411.04 C 1217.24 1454.77 1163.23 1477.91 1100.72 1490.58 C 1089.92 1492.77 1070.39 1492.64 1066.87 1504.23 C 1067.37 1507.31 1067.65 1508.92 1070.64 1510.96 C 1080.77 1517.86 1117.66 1507.76 1129.91 1504.92 C 1146.93 1500.97 1172.46 1492.45 1188.21 1485.32 L 1203.64 1477.59 C 1213.16 1485.78 1229.01 1498.86 1237.26 1508.03 C 1245.27 1516.13 1264.36 1537.14 1271.16 1546.24 C 1282.58 1561.74 1294.61 1577.94 1305.25 1593.98 C 1314.53 1608.04 1322.62 1622.84 1329.45 1638.23 C 1338.95 1658.17 1346.69 1687.36 1350.02 1709.07 C 1355.83 1755.98 1352.69 1813.48 1323.08 1852.93 C 1304.45 1877.75 1269.13 1884.14 1239.83 1887.31 C 1223.23 1889.23 1206.52 1890.17 1189.81 1890.14 C 1190.37 1878.65 1197.05 1858.05 1195.11 1852.98 C 1178.33 1835.77 1174.85 1884.01 1174.95 1891.96 C 1163.44 1891.88 1153.92 1891.35 1142.47 1889.69 C 1142.76 1885.42 1143.03 1881.75 1143.98 1877.56 C 1145.74 1869.83 1159.11 1851.97 1143.57 1850.05 C 1132.59 1853.47 1128.14 1877.66 1126.92 1887.87 C 1121.8 1885.99 1117.37 1884.73 1113.86 1880.26 C 1100.13 1862.8 1122.24 1840.16 1138.36 1834.09 C 1165.23 1823.97 1197.24 1825.62 1222 1840.78 C 1227.62 1844.22 1228.27 1845.48 1234.98 1843.65 C 1236.49 1842.23 1238.21 1840.74 1237.65 1838.5 C 1231.38 1813.3 1179.35 1809.55 1162.82 1810.16 C 1144.9 1779.2 1142.01 1748.11 1150.53 1713.29 C 1157.53 1684.67 1179.96 1653.17 1212.79 1655.51 C 1218.27 1655.89 1221.31 1653.72 1222.29 1648.12 C 1220.1 1636.82 1203.26 1638.07 1194.84 1640.28 C 1137.31 1655.37 1118.23 1734.89 1132.26 1785.46 C 1132.89 1787.73 1133.59 1789.98 1134.35 1792.22 C 1136.77 1799.32 1139.13 1806.6 1142.08 1813.48 C 1127.42 1817.45 1120.17 1820.54 1107.69 1829.53 C 1092.12 1844.01 1094.81 1850.89 1088.79 1865.49 L 1087.02 1865.59 L 1086.56 1864.04 C 1099.42 1826.35 1101.68 1780.9 1106.54 1741.97 C 1108.08 1730.81 1110.3 1719.32 1112.28 1708.19 C 1114.07 1699.27 1121.62 1673.8 1107.57 1672.14 C 1105.46 1671.89 1102.6 1672.99 1101.21 1674.71 C 1098.73 1678.19 1099.06 1686.94 1098.34 1691.31 C 1097.35 1697.27 1096.12 1702.17 1094.59 1707.77 C 1092.26 1719.52 1090.76 1731.34 1089.12 1743.2 C 1084.76 1782.75 1084.62 1823.09 1069.51 1860.6 C 1058.88 1886.99 1044.93 1887.26 1019.96 1890.28 C 1019.85 1880.02 1020.54 1873.09 1023.48 1863.15 C 1025.57 1856.12 1028.04 1847.83 1018.42 1846.21 C 1007.76 1850.61 1005.11 1879.81 1003.8 1890.1 C 995.682 1889.97 986.605 1890.03 978.586 1889.46 C 979.397 1877.69 981.143 1869.52 984.22 1858.3 C 984.934 1855.7 979.932 1851.62 975.679 1852.03 C 964.516 1860.33 964.971 1884.37 961.427 1886.01 C 952.382 1882.83 952.113 1878.9 951.777 1870.36 C 951.257 1857.15 956.093 1845.85 966.209 1837.48 C 970.265 1834.12 979.228 1828.13 979.868 1823.89 C 981.295 1814.42 979.527 1792.77 979.487 1784.15 C 979.513 1769.26 979.708 1754.38 980.07 1739.5 C 980.521 1721.67 982.109 1703.68 984.225 1685.97 C 985.137 1678.33 989.958 1663.64 986.394 1656.59 C 985.298 1654.43 983.6 1652.73 981.109 1652.27 C 978.548 1651.81 977.155 1652.75 975.42 1654.51 C 963.143 1666.94 960.748 1792 963.129 1814.86 C 959.436 1817.34 955.497 1819.84 952.069 1822.64 C 944.769 1829.7 940.043 1835.35 935.605 1844.54 C 932.611 1850.74 933.11 1860.72 929.445 1864.2 L 928.452 1863.78 C 927.919 1858.39 929.237 1854.41 929.958 1849.1 C 933.048 1826.35 932.145 1802.5 930.961 1779.63 C 929.125 1749.51 926.029 1717.24 921.964 1687.13 C 921.138 1681.01 914.535 1670.42 906.855 1675.68 C 903.108 1682.7 906.976 1697.63 907.96 1705.63 C 912.359 1741.42 924.521 1848.77 901.114 1877.21 C 891.994 1888.29 875.195 1887.86 862.049 1888.95 C 861.849 1884.69 861.651 1880.9 862.051 1876.6 C 862.748 1869.08 869.649 1856.32 866.315 1849.97 C 849.994 1839.44 846.905 1881.28 846.722 1890.14 C 843.232 1890.14 824.878 1890.65 823.327 1888.61 C 816.45 1879.57 834.62 1853.76 824.372 1847.92 C 809.793 1847.97 808.004 1877.04 807.789 1887.56 C 800.659 1886.03 791.781 1884.28 790.504 1875.48 C 788.247 1859.93 793.93 1844.87 806.119 1834.91 C 811.393 1830.6 821.329 1826.79 824.903 1821.69 C 826.349 1814.8 813.678 1756.41 811.487 1744.53 C 809.046 1731.43 807.188 1718.23 805.918 1704.97 C 799.974 1657.79 800.73 1612.45 805.17 1565.13 C 807.239 1543.09 810.481 1521 812.322 1499.01 C 822.565 1501.49 848.466 1510.89 852.004 1496.48 C 848.95 1485.32 830.407 1482.83 820.355 1479.87 C 759.894 1462.1 718.451 1441.03 675.68 1394.02 C 686.289 1390.69 706.902 1386.53 716.526 1381.44 C 718.957 1380.15 719.583 1375.72 719.575 1372.74 C 712.972 1359.66 676.224 1374.7 665.261 1378.66 C 654.39 1358.63 650.789 1348.07 646.816 1325.98 C 661.938 1325.88 677.034 1327.25 691.887 1330.09 C 702.587 1332.17 708.873 1339.32 716.456 1336.77 C 736.242 1318.01 679.014 1310.05 670.755 1309.01 C 662.064 1308.4 653.356 1308.08 644.643 1308.03 C 643.58 1292.47 645.181 1274.08 647.49 1258.69 C 655.727 1207.63 675.388 1147.64 702.002 1102.64 C 709.714 1090.32 720.62 1080.25 730.5 1070.04 C 743.806 1055.81 761.555 1048.34 776.78 1036.9 C 783 1032.22 777.997 1016.56 776.124 1010.01 C 762.838 963.526 733.501 925.333 699.131 892.423 L 703.721 889.038 C 750.782 913.482 793.018 945.163 832.664 980.298 C 827.318 982.719 803.659 993.058 823.783 1002.52 C 828.503 1004.74 856.588 992.553 865.282 989.447 C 879.063 984.592 893.229 981.812 907.538 979.067 C 917.56 976.932 928.066 975.902 938.264 974.689 C 957.452 972.16 983.074 970.587 1002.62 972.623 L 1036.62 976.463 C 1049.65 978.564 1064.24 980.632 1076.85 984.233 L 1078.54 984.707 C 1089.81 987.931 1107.62 997.714 1116.43 997.17 C 1128.21 989.789 1121.43 982.961 1113.07 977.253 z"/>
<path transform="translate(0,0)" fill="#023155" d="M 938.264 974.689 C 957.452 972.16 983.074 970.587 1002.62 972.623 C 1001.3 981.575 990.156 999.823 986.543 1010.35 C 978.396 1034.09 969.261 1102.86 950.898 1116.19 C 948.253 1118.11 945.167 1119.79 941.779 1119.52 C 938.599 1119.26 936.124 1116.92 934.397 1114.42 C 920.856 1094.87 925.161 1031.47 930.132 1008.45 C 932.621 997.142 935.333 985.887 938.264 974.689 z"/>
<path transform="translate(0,0)" fill="#023155" d="M 1188.21 1485.32 L 1203.64 1477.59 C 1213.16 1485.78 1229.01 1498.86 1237.26 1508.03 C 1234.93 1510.99 1231.47 1521.67 1228.98 1525.81 C 1217.05 1545.12 1205.68 1562.51 1186.53 1575.85 C 1173.98 1584.59 1142.42 1604.76 1128.62 1586.24 C 1124.14 1580.22 1128.25 1570.47 1131.68 1564.39 C 1139.87 1549.89 1201.56 1505.23 1188.21 1485.32 z"/>
<path transform="translate(0,0)" fill="#023155" d="M 1329.45 1638.23 C 1338.95 1658.17 1346.69 1687.36 1350.02 1709.07 C 1328.35 1716.16 1308.4 1730.8 1283.89 1732.12 C 1271.35 1732.79 1248.58 1733.11 1246.61 1716.12 C 1245.8 1709.23 1255.96 1703.19 1261.04 1700.81 C 1281.19 1691.22 1299.97 1679.73 1312.63 1660.81 C 1316.26 1655.59 1325.23 1642.31 1329.45 1638.23 z"/>
<path transform="translate(0,0)" fill="#023155" d="M 1226.15 1313.59 C 1221.73 1308.33 1203.36 1307.7 1197.84 1297.89 C 1193 1289.27 1197.2 1283.03 1205.54 1278.58 C 1227.34 1266.95 1257.42 1268.76 1281 1272.92 C 1291.4 1274.76 1301.17 1278.63 1311.24 1281.01 L 1312.07 1281.2 C 1312.07 1292.15 1312.21 1303.46 1311.84 1314.37 C 1286.16 1309.12 1251.94 1310.07 1226.15 1313.59 z"/>
<path transform="translate(0,0)" fill="#023155" d="M 1036.62 976.463 C 1049.65 978.564 1064.24 980.632 1076.85 984.233 C 1066.02 993.153 1056.66 1063.27 1032.13 1077.75 C 1028.43 1079.94 1023.49 1080.83 1019.34 1079.37 C 1016.34 1078.31 1014.58 1076.45 1013.35 1073.54 C 1006.52 1057.42 1029.59 994.571 1036.62 976.463 z"/>
<path transform="translate(0,0)" fill="#023155" d="M 865.282 989.447 C 879.063 984.592 893.229 981.812 907.538 979.067 C 903.822 992.178 900.167 1003.03 897.02 1016.46 C 893.798 1030.2 891.212 1060.97 886.892 1072.51 C 885.674 1075.83 883.267 1078.58 880.138 1080.23 C 852.832 1094.86 864.068 1000.57 865.282 989.447 z"/>
<path transform="translate(0,0)" fill="#023155" d="M 1271.16 1546.24 C 1282.58 1561.74 1294.61 1577.94 1305.25 1593.98 C 1296.53 1607.53 1261.8 1633.53 1243.86 1625.03 C 1239.65 1623.03 1238.55 1617.83 1237.27 1613.67 C 1239.55 1601.94 1243.69 1595.53 1250.01 1585.53 C 1257.85 1573.1 1264.86 1559.54 1271.16 1546.24 z"/>
<path transform="translate(0,0)" fill="#023155" d="M 647.49 1258.69 C 663.405 1260.69 713.493 1265.15 713.458 1287.04 C 713.436 1301.16 679.683 1306.12 670.755 1309.01 C 662.064 1308.4 653.356 1308.08 644.643 1308.03 C 643.58 1292.47 645.181 1274.08 647.49 1258.69 z"/>
<path transform="translate(0,0)" fill="#023155" d="M 805.918 1704.97 C 818.126 1707.52 871.546 1714.57 877.126 1722.97 C 879.269 1726.19 880.317 1730.48 879.044 1734.24 C 877.357 1739.22 871.746 1741.97 867.14 1743.58 C 850.08 1749.55 828.95 1747.53 811.487 1744.53 C 809.046 1731.43 807.188 1718.23 805.918 1704.97 z"/>
<path transform="translate(0,0)" fill="#023155" d="M 1089.12 1743.2 C 1074.63 1742.81 1034.63 1747.71 1023.08 1737.38 C 991.481 1709.14 1081.26 1708.34 1094.59 1707.77 C 1092.26 1719.52 1090.76 1731.34 1089.12 1743.2 z"/>
<path transform="translate(0,0)" fill="#023155" d="M 930.961 1779.63 C 936.991 1777.2 942.009 1774.7 946.713 1780.42 C 948.672 1789.18 945.022 1794.9 941.418 1802.94 L 949.91 1811.31 C 949.954 1814.72 949.208 1820.55 952.069 1822.64 C 944.769 1829.7 940.043 1835.35 935.605 1844.54 C 932.611 1850.74 933.11 1860.72 929.445 1864.2 L 928.452 1863.78 C 927.919 1858.39 929.237 1854.41 929.958 1849.1 C 933.048 1826.35 932.145 1802.5 930.961 1779.63 z"/>
<path transform="translate(0,0)" fill="#023155" d="M 1134.35 1792.22 C 1136.77 1799.32 1139.13 1806.6 1142.08 1813.48 C 1127.42 1817.45 1120.17 1820.54 1107.69 1829.53 L 1105.37 1814.34 C 1115.17 1810.21 1123.61 1799.22 1134.35 1792.22 z"/>
<path transform="translate(0,0)" fill="#023155" d="M 1112.28 1708.19 C 1132.61 1719.93 1122.53 1732.26 1106.54 1741.97 C 1108.08 1730.81 1110.3 1719.32 1112.28 1708.19 z"/>
<path transform="translate(0,0)" fill="#023155" d="M 889.373 1306.07 C 893.413 1283.87 938.467 1284.86 955.146 1288.72 C 966.225 1291.28 973.448 1295.48 974.515 1306.98 C 974.898 1307.06 975.28 1307.14 975.663 1307.22 C 1001.82 1312.88 1023.1 1323.98 1037.83 1347.06 C 1046.91 1361.94 1051.04 1387.57 1046.72 1404.39 C 1029.82 1466.55 948.15 1475.51 895.525 1462.8 C 845.032 1450.62 816.573 1410.98 830.001 1359.68 C 835.053 1340.39 845.832 1324.47 865.047 1316.47 C 872.738 1313.26 882.36 1310.37 889.373 1306.07 z"/>
<path transform="translate(0,0)" fill="rgb(2,49,85)" d="M 889.373 1306.07 C 893.413 1283.87 938.467 1284.86 955.146 1288.72 C 966.225 1291.28 973.448 1295.48 974.515 1306.98 C 971.712 1327.6 956.224 1333.55 938.023 1337.53 C 937.939 1349.74 937.785 1360.63 937.033 1372.82 C 950.747 1376.2 959.339 1379.52 969.841 1388.67 C 975.952 1394 995.551 1417.73 984.031 1422.43 C 966.627 1429.53 963.018 1392.77 938.114 1392.73 C 917.956 1392.7 911.13 1394.86 898.385 1412.07 C 895.132 1416.8 889.035 1424.25 882.345 1421.71 C 876.096 1419.33 874.612 1414.36 877.577 1408.69 C 887.344 1390.01 900.946 1380.82 919.963 1373.27 L 919.987 1336.92 C 901.986 1334.08 893.298 1322.98 889.373 1306.07 z"/>
<path transform="translate(0,0)" fill="rgb(2,49,85)" d="M 1082.46 1211.98 C 1110.32 1207.01 1136.92 1225.59 1141.84 1253.46 C 1146.76 1281.33 1128.12 1307.9 1100.25 1312.77 C 1072.44 1317.62 1045.95 1299.05 1041.05 1271.25 C 1036.14 1243.45 1054.67 1216.93 1082.46 1211.98 z"/>
<path transform="translate(0,0)" fill="#023155" d="M 1099.86 1226.57 C 1106.21 1224.44 1113.09 1227.87 1115.2 1234.23 C 1117.31 1240.6 1113.86 1247.46 1107.49 1249.56 C 1101.15 1251.64 1094.32 1248.2 1092.21 1241.87 C 1090.11 1235.54 1093.53 1228.69 1099.86 1226.57 z"/>
<path transform="translate(0,0)" fill="rgb(2,49,85)" d="M 796.887 1207.32 C 856.575 1200.56 871.164 1299.28 804.242 1309.87 C 778.463 1310.37 758.793 1293.7 753.892 1268.47 C 751.081 1253.89 754.421 1238.79 763.121 1226.76 C 771.874 1214.76 782.659 1209.54 796.887 1207.32 z"/>
<path transform="translate(0,0)" fill="#023155" d="M 813.878 1224.51 C 820.241 1222.49 827.046 1225.97 829.137 1232.31 C 831.227 1238.65 827.823 1245.49 821.505 1247.65 C 817.358 1249.06 812.77 1248.14 809.491 1245.24 C 806.211 1242.33 804.746 1237.89 805.654 1233.6 C 806.562 1229.31 809.702 1225.84 813.878 1224.51 z"/>
<path transform="translate(0,0)" fill="rgb(2,49,85)" d="M 1054.1 1125.7 C 1055.33 1125.7 1059.53 1126.02 1060.12 1126.73 C 1069.61 1138.11 1071.64 1145.48 1084.65 1154.23 C 1090.59 1158.17 1097.02 1161.31 1103.78 1163.57 C 1112.53 1166.55 1151.33 1172.07 1130.91 1187.97 C 1106.32 1188.66 1070.2 1170.35 1055.22 1150.38 C 1048.49 1141.4 1043.99 1133.74 1054.1 1125.7 z"/>
<path transform="translate(0,0)" fill="rgb(2,49,85)" d="M 831.896 1127.62 C 852.887 1128.97 839.198 1146.81 830.961 1154.36 C 811.03 1172.64 783.561 1188.27 755.915 1188.06 C 749.032 1185.88 745.407 1180.38 750.429 1174.15 C 754.507 1168.73 761.317 1171.3 766.986 1170.2 C 794.714 1164.83 814.4 1148.6 831.896 1127.62 z"/>
<path transform="translate(0,0)" fill="#023155" d="M 1431.39 1470.43 C 1449.59 1440.26 1468.86 1420.72 1505.21 1409.93 C 1542.18 1398.96 1586.54 1425.6 1561.62 1467.22 C 1555.32 1477.74 1532.17 1494.13 1521.83 1505.33 C 1510.04 1521.88 1506.28 1533.1 1503.92 1553.56 C 1503.99 1576.35 1503.88 1589.92 1508.31 1612.74 C 1507.51 1612.38 1506.7 1612.02 1505.89 1611.67 C 1477.93 1599.64 1451.28 1600.56 1423.75 1611.46 C 1416.22 1583.84 1413.12 1567.62 1412.71 1538.89 C 1413.83 1510.54 1418.09 1495.45 1431.39 1470.43 z"/>
<path transform="translate(0,0)" fill="#023155" d="M 1412.71 1538.89 C 1434.3 1530.78 1465.05 1533.22 1486.01 1542.88 C 1492.34 1545.8 1498.35 1549.38 1503.92 1553.56 C 1503.99 1576.35 1503.88 1589.92 1508.31 1612.74 C 1507.51 1612.38 1506.7 1612.02 1505.89 1611.67 C 1477.93 1599.64 1451.28 1600.56 1423.75 1611.46 C 1416.22 1583.84 1413.12 1567.62 1412.71 1538.89 z"/>
<path transform="translate(0,0)" fill="#023155" d="M 1431.39 1470.43 C 1437.38 1470.7 1456.77 1470.39 1461.05 1471.41 C 1478.32 1475.54 1511.31 1491.55 1521.83 1505.33 C 1510.04 1521.88 1506.28 1533.1 1503.92 1553.56 C 1498.35 1549.38 1492.34 1545.8 1486.01 1542.88 C 1465.05 1533.22 1434.3 1530.78 1412.71 1538.89 C 1413.83 1510.54 1418.09 1495.45 1431.39 1470.43 z"/>
<path transform="translate(0,0)" fill="#023155" d="M 1300 875.925 C 1311.12 885.978 1313.44 915.707 1315.76 930.709 C 1326.32 998.842 1314.35 1064.2 1289.36 1127.79 C 1271.8 1091.12 1259.74 1074.68 1229.47 1047.63 C 1221.29 1040.7 1212.91 1035.22 1203.99 1029.4 C 1217.74 1020.08 1229.22 1014.35 1245.29 1009.86 C 1251.04 1008.26 1249.53 995.819 1241.03 995.393 C 1223.35 994.505 1205.52 1007.57 1191.34 1016.86 C 1210.07 958.674 1248.49 908.838 1300 875.925 z"/>
<path transform="translate(0,0)" fill="#023155" d="M 657.729 885.383 C 662.455 888.093 667.111 890.923 671.692 893.87 C 712.745 920.606 751.607 974.937 761.946 1023.15 C 754.119 1018.9 700.798 985.34 703.529 1012.22 C 704.02 1017.05 720.761 1021.83 725.548 1023.81 C 732.231 1026.58 738.445 1029.79 745.073 1033.48 C 737.337 1038.76 731.079 1043.38 723.701 1049.16 C 693.571 1074.34 681.235 1095.09 665.655 1129.73 C 660.293 1113.6 655.529 1097.28 651.371 1080.81 C 638.389 1029.12 633.911 981.375 644.172 928.817 C 647.463 911.964 648.782 900.323 657.729 885.383 z"/>
<path transform="translate(0,0)" fill="#023155" d="M 1423.75 1611.46 C 1451.28 1600.56 1477.93 1599.64 1505.89 1611.67 C 1506.7 1612.02 1507.51 1612.38 1508.31 1612.74 C 1513.13 1642.68 1517.39 1675.1 1510.59 1705.2 C 1505.33 1732.86 1500.38 1751.92 1486.07 1776.56 C 1475.67 1757.27 1449.24 1731.58 1427.4 1726.71 C 1433.73 1708 1435.66 1697.97 1436.04 1678.15 C 1435.67 1656.15 1430.08 1632.43 1423.75 1611.46 z"/>
<path transform="translate(0,0)" fill="#023155" d="M 1436.04 1678.15 C 1471.31 1679.21 1482.02 1685.14 1510.59 1705.2 C 1505.33 1732.86 1500.38 1751.92 1486.07 1776.56 C 1475.67 1757.27 1449.24 1731.58 1427.4 1726.71 C 1433.73 1708 1435.66 1697.97 1436.04 1678.15 z"/>
<path transform="translate(0,0)" fill="#023155" d="M 1427.4 1726.71 C 1449.24 1731.58 1475.67 1757.27 1486.07 1776.56 C 1469.54 1802.14 1458.2 1816.99 1431.07 1832.87 C 1405.99 1846.73 1374.56 1852.12 1346.18 1852.2 C 1357.92 1828.3 1362.21 1811.51 1367.66 1786.03 C 1378.77 1781.66 1384.03 1778.9 1393.87 1772.22 C 1410.99 1757.97 1418.63 1746.99 1427.4 1726.71 z"/>
<path transform="translate(0,0)" fill="#023155" d="M 1393.87 1772.22 C 1398.53 1780.82 1405.03 1786.31 1410.48 1793.63 C 1417.68 1803.3 1427.06 1821.54 1431.07 1832.87 C 1405.99 1846.73 1374.56 1852.12 1346.18 1852.2 C 1357.92 1828.3 1362.21 1811.51 1367.66 1786.03 C 1378.77 1781.66 1384.03 1778.9 1393.87 1772.22 z"/>
<path transform="translate(0,0)" fill="#023155" d="M 680.514 878.358 C 687.661 881.072 696.659 885.672 703.721 889.038 L 699.131 892.423 C 692.956 887.695 686.75 883.006 680.514 878.358 z"/>
<path transform="translate(0,0)" fill="rgb(2,49,85)" d="M 1025.61 170.462 C 1139.91 168.087 1198.65 232.602 1214.88 342.944 C 1231.67 457.079 1189.54 592.128 1059.29 609.936 C 1048.76 610.2 1034.43 611.012 1024.49 610.037 C 856.979 593.772 829.213 360.289 906.335 244.086 C 936.469 198.682 973.699 180.444 1025.61 170.462 z M 1051.68 523.608 C 1075.4 517.86 1089.26 508.483 1102.58 487.339 C 1142.8 423.483 1139.61 251.588 1033.04 257.155 C 954.446 274.345 950.977 383.242 964.307 446.142 C 973.823 491.042 1001.89 527.8 1051.68 523.608 z"/>
<path transform="translate(0,0)" fill="rgb(2,49,85)" d="M 1434.55 183.909 C 1441.82 174.753 1461.74 173.124 1472.53 174.486 C 1489.85 176.671 1534.1 167.453 1543.6 183.373 L 1543.81 185.162 C 1546.23 207.017 1543.79 230.35 1544.78 252.292 C 1547.38 309.824 1545.72 367.281 1546.54 424.845 C 1546.58 427.752 1546.79 429.624 1548.62 431.93 C 1560.16 439.016 1593.51 424.055 1599.55 444.743 C 1600.55 448.177 1600 455.882 1599.83 459.732 C 1599.92 468.17 1600.16 477.006 1599.89 485.408 C 1600.05 491.084 1601.12 499.085 1598.76 504.376 C 1591.59 520.48 1561.22 506.244 1548.99 513.468 C 1546.86 514.723 1546.32 517.113 1546.07 519.394 C 1543.71 540.902 1550.42 571.643 1543.95 592.167 C 1543.02 595.129 1541.79 596.576 1538.93 597.935 C 1530.75 601.829 1466.79 601.965 1458.27 598.509 C 1455.59 597.424 1453.61 595.71 1452.58 592.968 C 1446.72 577.316 1456.64 530.751 1449.77 517.076 C 1448.4 514.334 1446.16 512.816 1443.17 512.352 C 1432.92 510.76 1420.97 512.694 1410.5 512.783 C 1387.59 512.978 1279.25 515.641 1263.59 509.973 C 1260.99 509.03 1258.5 507.875 1257.39 505.155 C 1253.25 494.979 1255.25 448.643 1259.29 437.721 C 1262.56 430.76 1272.23 417.884 1276.96 411.107 L 1312.99 359.282 L 1390.38 247.212 C 1404.11 227.304 1420.04 202.876 1434.55 183.909 z M 1363.23 433.725 C 1375.77 433.967 1444.64 435.539 1451.65 431.389 C 1455.8 424.94 1452.13 337.382 1453.45 321.869 C 1453.79 317.927 1453.67 293.103 1453.16 288.365 L 1451.81 287.514 C 1441.32 302.652 1362.39 421.504 1360.07 430.219 L 1360.82 432.526 L 1363.23 433.725 z"/>
<path transform="translate(0,0)" fill="#023155" d="M 1259.29 437.721 C 1258.35 455.659 1253 492.282 1262.13 507.066 C 1271.88 511.128 1295.06 509.652 1306.35 509.575 L 1382.63 509.534 C 1401.12 509.515 1436.76 508.077 1452.75 512.283 C 1457.78 537.462 1449.84 570.352 1457.14 593.721 C 1458.53 598.197 1526.67 597.665 1533.11 596.351 C 1551.45 592.61 1537.79 529.511 1542.96 516.939 C 1549.87 500.112 1586.41 518.581 1595.91 504.01 C 1598.58 499.638 1595.43 492.303 1599.89 485.408 C 1600.05 491.084 1601.12 499.085 1598.76 504.376 C 1591.59 520.48 1561.22 506.244 1548.99 513.468 C 1546.86 514.723 1546.32 517.113 1546.07 519.394 C 1543.71 540.902 1550.42 571.643 1543.95 592.167 C 1543.02 595.129 1541.79 596.576 1538.93 597.935 C 1530.75 601.829 1466.79 601.965 1458.27 598.509 C 1455.59 597.424 1453.61 595.71 1452.58 592.968 C 1446.72 577.316 1456.64 530.751 1449.77 517.076 C 1448.4 514.334 1446.16 512.816 1443.17 512.352 C 1432.92 510.76 1420.97 512.694 1410.5 512.783 C 1387.59 512.978 1279.25 515.641 1263.59 509.973 C 1260.99 509.03 1258.5 507.875 1257.39 505.155 C 1253.25 494.979 1255.25 448.643 1259.29 437.721 z"/>
<path transform="translate(0,0)" fill="#023155" d="M 1434.55 183.909 C 1441.82 174.753 1461.74 173.124 1472.53 174.486 C 1489.85 176.671 1534.1 167.453 1543.6 183.373 L 1543.81 185.162 C 1546.23 207.017 1543.79 230.35 1544.78 252.292 C 1547.38 309.824 1545.72 367.281 1546.54 424.845 C 1546.58 427.752 1546.79 429.624 1548.62 431.93 C 1560.16 439.016 1593.51 424.055 1599.55 444.743 C 1600.55 448.177 1600 455.882 1599.83 459.732 C 1598.62 459.626 1599.35 459.781 1597.74 458.906 C 1597.44 454.887 1597.18 447.351 1596.27 443.916 C 1591.18 424.823 1543.14 448.747 1542.77 426.322 C 1542.46 407.486 1542.44 386.844 1542.38 367.82 L 1541.89 243.695 C 1541.91 224.962 1542.99 204.07 1540.38 185.53 C 1540.37 178.534 1524.34 177.654 1518.49 178.064 C 1490.42 180.034 1460.85 173.052 1434.55 183.909 z"/>
<path transform="translate(0,0)" fill="rgb(2,49,85)" d="M 641.293 185.967 C 644.233 180.588 648.675 178.167 654.465 176.465 C 667.463 172.643 733.439 172.865 745.556 177.001 C 746.019 177.159 746.486 177.308 746.951 177.461 C 752.886 184.6 753.652 188.983 753.985 198.399 C 753.944 214.829 753.855 231.091 753.417 247.519 C 753.186 256.173 754.549 265.78 753.685 274.437 C 753.308 305.763 753.238 337.092 753.474 368.419 C 753.468 386.025 753.444 403.898 753.771 421.145 C 754.172 442.34 776.135 432.296 790.253 432.792 C 813.033 433.592 807.232 474.904 806.564 492.494 C 806.386 496.59 806.057 500.679 805.578 504.75 C 787.883 521.094 762.953 504.101 753.316 517.014 C 755.76 531.765 755.386 582.938 750.91 596.06 C 733.668 603.664 693.464 599.61 673.593 600 C 646.514 600.531 668.846 528.2 657.746 514.831 C 653.817 510.098 626.013 512.618 619.082 512.617 L 533.416 512.821 C 523.336 512.841 471.428 514.761 466.598 507.661 C 461.485 500.145 462.902 454.63 465.204 444.294 L 465.632 442.424 C 468.061 431.584 499.7 389.45 507.85 377.669 L 581.377 271.865 L 618.073 218.892 C 624.86 208.985 633.866 194.986 641.293 185.967 z M 570.175 433.848 C 579.705 434.102 653.821 435.199 658.091 432.11 C 658.913 429.585 660.152 424.723 660.139 420.823 C 659.991 377.059 661.808 332.792 660.399 289.173 C 660.376 288.464 659.119 287.786 658.912 287.633 C 642.905 310.478 626.839 337.335 611.608 360.858 C 603.27 373.734 570.623 419.404 568.156 431.538 C 569.077 432.825 568.957 432.967 570.175 433.848 z"/>
<path transform="translate(0,0)" fill="#023155" d="M 753.316 517.014 C 752.039 515.433 752.514 516.367 752.608 513.79 C 763.795 501.83 805.541 522.408 804.193 493.784 C 803.699 483.301 806.453 444.483 800.311 439.025 C 787.475 427.62 747.891 450.81 750.624 418.002 C 751.435 402.517 749.792 380.885 750.712 364.119 C 752.208 336.881 747.024 300.493 753.685 274.437 C 753.308 305.763 753.238 337.092 753.474 368.419 C 753.468 386.025 753.444 403.898 753.771 421.145 C 754.172 442.34 776.135 432.296 790.253 432.792 C 813.033 433.592 807.232 474.904 806.564 492.494 C 806.386 496.59 806.057 500.679 805.578 504.75 C 787.883 521.094 762.953 504.101 753.316 517.014 z"/>
<path transform="translate(0,0)" fill="#023155" d="M 641.293 185.967 C 644.233 180.588 648.675 178.167 654.465 176.465 C 667.463 172.643 733.439 172.865 745.556 177.001 C 746.019 177.159 746.486 177.308 746.951 177.461 C 752.886 184.6 753.652 188.983 753.985 198.399 C 748.422 192.058 751.102 179.977 741.419 179.16 C 713.565 176.809 683.778 177.816 655.794 178.846 C 652.203 178.978 644.458 184.01 641.293 185.967 z"/>
<path transform="translate(0,0)" fill="rgb(2,49,85)" d="M 683.222 704.197 C 689.672 703.789 702.383 703.392 708.149 706.169 C 712.12 708.081 712.261 712.914 717.682 713.639 C 718.014 710.691 717.966 709.241 719.338 706.569 C 723.056 705.324 731.498 705.894 735.812 705.971 C 737.933 726.745 737.92 777.251 733.485 797.052 C 726.865 826.608 673.436 835.092 658.984 799.493 C 660.801 796.236 663.708 795.799 666.919 794.394 C 675.251 790.8 675.253 792.867 680.423 798.307 C 687.315 805.56 701.197 806.976 708.666 799.833 C 717.239 791.634 717.405 784.032 717.937 773.442 C 669.863 821.122 626.792 727.258 683.222 704.197 z M 703.353 767.674 C 720.975 757.411 719.964 741.358 710.099 725.492 C 702.381 722.095 700.853 721.488 692.346 722.054 C 667.634 731.192 671.448 770.784 703.353 767.674 z"/>
<path transform="translate(0,0)" fill="rgb(2,49,85)" d="M 1540.36 673.519 C 1546.57 673.732 1552.79 673.83 1559 673.815 C 1560.2 687.353 1559.82 703.958 1559.85 717.696 L 1559.74 785.838 C 1555.29 786.236 1546.22 787.089 1542.25 785.487 C 1541.36 782.524 1541.26 781.125 1540.92 778.118 C 1537.1 778.805 1533.87 784.123 1528.52 786.511 C 1519.92 790.35 1510.8 788.101 1502.33 785.389 C 1462.9 764.169 1477.01 687.994 1532.88 706.892 L 1539.99 714.456 C 1539.33 703.847 1539.81 684.308 1540.36 673.519 z M 1524.7 769.92 C 1531.13 767.15 1537.22 763.474 1539.02 756.443 C 1544.85 733.657 1537.54 721.276 1515.17 722.048 C 1491.12 732.378 1495.86 771.618 1524.7 769.92 z"/>
<path transform="translate(0,0)" fill="rgb(2,49,85)" d="M 489.358 674.05 L 490.267 673.981 C 517.368 672.107 568.138 668.746 567.921 709.027 C 567.771 736.843 549.326 745.784 524.191 746.439 C 519.949 746.686 514.407 746.363 510.059 746.237 C 509.802 755.349 513.152 778.47 506.302 785.475 C 504.616 787.199 489.811 787.355 489.417 784.081 C 485.966 755.391 488.773 725.213 487.859 696.193 C 487.664 689.845 487.483 679.836 489.358 674.05 z M 510.065 727.96 C 521.215 728.222 532.51 729.727 542.114 723.898 C 548.048 715.504 551.73 704.467 541.757 697.277 C 532.382 690.518 520.886 691.7 509.996 692.158 L 510.065 727.96 z"/>
<path transform="translate(0,0)" fill="rgb(2,49,85)" d="M 1001.35 704.107 C 1012.36 703.777 1021.39 702.989 1031.84 708.51 C 1052.96 719.66 1057.5 749.751 1046.85 769.57 C 1041.62 779.295 1033.72 784.123 1023.22 787.086 C 964.317 798.716 955.97 716.857 1001.35 704.107 z M 1019.23 769.913 C 1025.72 765.811 1030.94 759.901 1031.9 752.274 C 1034.96 728.054 1025.38 720.763 1004.64 722.108 C 998.666 725.927 993.661 731.152 992.673 738.245 C 989.664 759.853 998.529 771.384 1019.23 769.913 z"/>
<path transform="translate(0,0)" fill="rgb(2,49,85)" d="M 1245.57 704.349 C 1254.72 703.576 1268.15 703.167 1275.99 707.793 C 1307.58 726.426 1302.95 776.019 1267.75 787.364 C 1258.85 788.69 1249.19 788.9 1240.78 785.375 C 1231.64 781.578 1224.39 774.305 1220.61 765.156 C 1216.22 754.256 1216.3 735.658 1221.4 725.114 C 1227.76 711.935 1233.34 709.174 1245.57 704.349 z M 1261.16 770.209 C 1267.69 767.532 1272.85 764.075 1274.8 757.104 C 1280.28 737.489 1275.82 721.798 1254.35 721.3 C 1239.18 724.188 1234.71 737.951 1237.61 752.192 C 1240.34 765.596 1247.92 770.537 1261.16 770.209 z"/>
<path transform="translate(0,0)" fill="rgb(2,49,85)" d="M 782.046 704.199 C 816.242 702.767 832.663 716.812 828.498 751.87 C 810.674 751.972 789.74 751.593 772.18 752.739 C 775.724 777.282 795.087 774.005 810.162 760.602 L 811.623 759.282 L 814.397 759.809 L 826.412 765.532 C 820.572 782.862 808.809 788.699 791.422 788.41 C 741.927 787.59 733 718.287 782.046 704.199 z M 792.306 737.897 C 798.648 737.873 807.53 739.289 809.464 731.739 C 806.948 723.739 797.442 720.473 789.783 720.189 C 783.443 721.694 770.485 727.571 770.778 735.171 C 775.457 739.629 785.104 738.047 792.306 737.897 z"/>
<path transform="translate(0,0)" fill="rgb(2,49,85)" d="M 598.792 704.38 C 617.076 703.22 640.485 704.539 642.791 726.836 C 644.467 743.047 644.022 769.713 643.282 786.062 C 635.697 786.582 627.661 788.968 624.942 780.505 C 620.454 778.314 605.69 800.431 579.561 779.763 C 563.003 751.803 585.389 738.968 609.606 737.603 C 614.816 737.31 620.941 735.652 623.945 731.143 C 624.091 723.514 617.157 721.57 611.344 719.685 C 601.269 721.954 600.444 722.331 593.046 729.504 L 588.984 729.713 C 583.208 730.005 581.016 731.023 577.769 725.92 C 577.04 715.795 590.955 708.042 598.792 704.38 z M 599.774 770.505 C 613.411 772.376 625.68 766.905 624.028 751.45 C 622.422 750.021 623.272 750.251 621.693 750.212 C 612.963 751.688 593.68 753.08 593.548 764.053 C 595.7 768.151 595.718 767.989 599.774 770.505 z"/>
<path transform="translate(0,0)" fill="rgb(2,49,85)" d="M 919.545 704.437 C 947.809 702.248 958.488 712.021 958.198 741.005 C 958.054 755.373 959.519 772.071 957.697 786.179 C 951.506 786.452 944.232 786.266 937.957 786.245 C 937.045 767.78 940.358 741.008 934.047 725.232 C 926.719 721.894 925.413 721.459 917.524 722.772 C 901.013 731.794 906.063 767.976 905.902 785.707 C 899.454 786.343 893.331 786.153 886.862 786.088 C 884.646 764.001 886.88 729.687 886.363 706.147 C 891.562 705.861 899.579 705.51 904.561 706.265 C 905.1 709.207 905.237 710.089 906.236 712.995 C 912.407 709.394 911.686 707.204 919.545 704.437 z"/>
<path transform="translate(0,0)" fill="rgb(2,49,85)" d="M 1428.76 704.266 C 1479.19 701.3 1469.08 749.283 1467.75 786.135 C 1461.73 786.481 1454.27 786.118 1448.14 785.97 C 1447.74 770.639 1448.92 754.985 1448.16 739.715 C 1447.52 726.764 1441 720.699 1428.27 722.858 C 1413.37 732.092 1416.22 745.53 1416 761.139 C 1415.88 769.502 1416.08 777.841 1415.97 786.22 C 1409.65 786.498 1403.31 786.173 1396.97 785.96 C 1395.59 768.586 1395.92 723.346 1397.08 705.922 C 1401.34 705.845 1410.73 705.148 1413.93 706.749 L 1415.77 713.037 C 1419.49 712.493 1423.56 706.868 1428.76 704.266 z"/>
<path transform="translate(0,0)" fill="rgb(2,49,85)" d="M 1310.11 705.992 C 1316.37 705.688 1323.51 705.88 1329.84 705.915 C 1330.38 720.294 1327.62 759.924 1335.64 765.825 C 1369.31 790.594 1362.07 712.978 1362.09 706.021 C 1368 705.921 1374.06 705.971 1379.98 705.954 C 1380.4 715.161 1380.21 725.924 1380.27 735.25 C 1380.35 744.138 1382.08 779.444 1378.63 785.28 C 1375.51 785.957 1367.58 786.79 1364.77 785.29 C 1363.92 781.866 1364.19 780.932 1362.06 778.507 C 1348.6 788.782 1331.54 794.989 1318.73 780.611 C 1305.76 766.052 1309.32 724.368 1310.11 705.992 z"/>
<path transform="translate(0,0)" fill="rgb(2,49,85)" d="M 1195.43 670.172 C 1202.45 669.812 1215.92 669.198 1215.31 679.077 C 1214.58 690.974 1203.26 687.732 1198.82 689.444 C 1194.18 693.796 1194.81 699.322 1194.59 705.54 L 1211.69 706.03 C 1212.05 711.582 1212.05 717.031 1212.12 722.589 C 1205.19 723.526 1201.69 723.62 1194.69 723.651 C 1193.57 741.833 1194.19 766.208 1194.12 784.758 C 1190.34 787.48 1180.15 786.159 1174.95 785.941 C 1173.15 772.723 1174.03 738.478 1174.05 723.853 C 1166.36 724.054 1159.68 724.121 1158.34 714.48 C 1160.55 705.065 1166.05 705.606 1173.86 705.489 C 1174.19 686.475 1174.88 675.364 1195.43 670.172 z"/>
<path transform="translate(0,0)" fill="rgb(2,49,85)" d="M 1076.36 682.1 L 1092.23 681.801 C 1093.35 688.456 1093.73 698.624 1094.19 705.603 L 1110.11 706.034 C 1110.35 708.743 1110.55 711.456 1110.7 714.172 C 1110.87 717.726 1110.73 719.041 1108.33 721.682 C 1104.19 723.87 1098.92 723.278 1094 723.288 C 1094.07 732.511 1093.35 741.682 1093.22 750.875 C 1093 766.558 1096.77 768.717 1110.47 770.454 L 1110.77 783.356 C 1108.89 785.653 1108.82 786.031 1105.56 786.395 C 1062.23 791.226 1076.3 753.86 1073.54 724.306 C 1069.31 720.78 1067.6 726.296 1062.34 721.088 C 1060.94 716.669 1061.82 710.865 1062.15 706.048 C 1065.9 705.931 1070.06 705.528 1073.83 705.252 C 1074.15 698.385 1075.52 689.116 1076.36 682.1 z"/>
</svg>
